<svg version="1.1" id="Layer_1" xmlns="http://www.w3.org/2000/svg" xmlns:xlink="http://www.w3.org/1999/xlink" x="0px" y="0px"
	 width="100%" viewBox="0 0 1024 576" enable-background="new 0 0 1024 576" xml:space="preserve">
<path fill="#000000" opacity="1.000000" stroke="none" 
	d="
M184.354736,313.401794 
	C172.969681,268.664307 193.676849,226.434662 230.033035,206.046997 
	C262.527985,187.824600 306.797577,191.656036 335.488983,215.857117 
	C358.526398,235.289062 370.231720,260.228973 370.131073,290.256592 
	C369.959778,341.354187 327.613922,382.856445 276.565643,383.506317 
	C232.833344,384.063019 195.055573,353.933502 184.354736,313.401794 
M211.067383,278.356140 
	C222.227722,284.143311 233.388062,289.930511 244.622070,295.755890 
	C239.419342,303.270935 237.977051,303.706940 231.017792,300.180542 
	C222.999832,296.117706 215.005569,292.008057 206.998489,287.923706 
	C202.305954,285.530060 197.608475,283.146088 192.883362,280.742615 
	C188.584915,291.108978 193.963013,321.697937 208.714539,340.077606 
	C224.419434,359.645111 244.435684,370.702423 269.376251,372.831146 
	C270.278931,370.377350 269.161652,368.944641 268.601379,367.440613 
	C261.688782,348.883942 254.769272,330.329620 247.763794,311.807922 
	C246.653412,308.872162 246.545364,306.673615 249.296432,304.365997 
	C267.407013,289.174652 285.395721,273.837982 303.408081,258.529724 
	C311.964020,251.258255 320.484467,243.944977 329.020996,236.650635 
	C328.842682,236.343170 328.664368,236.035721 328.486023,235.728256 
	C285.650818,247.588272 242.815628,259.448303 199.980438,271.308289 
	C199.957001,271.753052 199.933578,272.197784 199.910156,272.642517 
	C203.409302,274.430817 206.908463,276.219116 211.067383,278.356140 
M359.669342,291.385620 
	C360.034241,275.521606 356.459351,260.738403 347.823273,246.172318 
	C328.378693,288.437958 309.440552,329.602692 290.259674,371.295105 
	C326.893188,367.408661 359.051117,330.270691 359.669342,291.385620 
M225.798523,221.294785 
	C212.182251,231.483536 202.280075,244.359604 196.328934,261.478882 
	C240.960892,249.105804 284.553833,237.020767 328.845825,224.741928 
	C305.158936,203.083023 260.620087,195.997345 225.798523,221.294785 
M300.832672,274.350861 
	C288.031677,285.262604 275.346039,296.314880 262.347412,306.985870 
	C259.154755,309.606842 258.697266,311.721222 260.123047,315.389648 
	C266.093933,330.752106 271.759827,346.232849 277.638519,361.631683 
	C278.222687,363.161865 278.368500,365.275543 281.144867,365.923523 
	C299.642212,325.825653 318.140808,285.725098 336.639404,245.624557 
	C336.290253,245.380371 335.941101,245.136169 335.591919,244.891968 
	C324.191498,254.566299 312.791046,264.240631 300.832672,274.350861 
z"/>
<path fill="#000000" opacity="1.000000" stroke="none" 
	d="
M662.302979,328.907196 
	C662.214844,335.581268 656.915161,338.703461 651.388306,335.885742 
	C649.690491,335.020081 649.709839,333.522675 649.708618,332.047028 
	C649.684387,303.387085 649.705139,274.727112 649.648315,246.067261 
	C649.642822,243.287338 650.853088,242.053604 653.493835,242.080078 
	C672.140137,242.267044 690.835327,240.838745 709.420654,242.849152 
	C723.171692,244.336639 732.971741,254.408020 734.209778,267.058899 
	C735.472839,279.965668 728.096924,290.467987 714.405090,295.288513 
	C713.330688,295.666809 712.298584,296.165283 710.677673,296.847443 
	C719.562805,309.724884 728.268860,322.342712 737.153625,335.219666 
	C726.967163,337.942749 723.907715,336.898560 718.994690,329.688202 
	C712.522034,320.189056 705.937927,310.763824 699.606567,301.171600 
	C697.736694,298.338623 695.619263,297.141205 692.223755,297.278778 
	C686.568054,297.507782 680.892456,297.202423 675.231567,297.356384 
	C671.545837,297.456604 670.676880,295.570038 670.817566,292.382080 
	C670.950806,289.362122 670.423523,286.059875 675.014404,286.049835 
	C684.011963,286.030182 693.009521,286.013519 702.007019,285.974548 
	C704.834106,285.962280 707.667847,286.033905 710.402222,285.050476 
	C717.732605,282.414215 722.411316,275.336243 721.619324,268.014008 
	C720.799988,260.438690 713.807983,253.848465 704.885925,253.518204 
	C692.239075,253.050079 679.563538,253.364731 666.900269,253.328140 
	C662.614136,253.315750 662.278931,256.141754 662.283997,259.435699 
	C662.319092,282.430145 662.302612,305.424683 662.302979,328.907196 
z"/>
<path fill="#000000" opacity="1.000000" stroke="none" 
	d="
M431.928223,315.027740 
	C442.495514,292.155151 452.996826,269.666443 463.221710,247.052765 
	C464.948486,243.233749 467.221527,241.938782 471.222076,241.915848 
	C475.295959,241.892487 477.919464,242.798431 479.788208,246.935287 
	C492.472534,275.014923 505.425507,302.973206 518.282471,330.974915 
	C518.897400,332.314209 519.762512,333.604675 519.430969,335.198792 
	C510.945557,338.364166 507.100769,336.779114 503.634064,328.765045 
	C501.385864,323.567871 498.902130,318.463745 496.872772,313.183868 
	C495.479645,309.559326 493.417694,308.082489 489.410950,308.225403 
	C481.089630,308.522156 472.749939,308.329498 464.418091,308.282776 
	C462.619659,308.272675 460.753815,308.649384 459.046051,307.756256 
	C458.981567,300.348236 462.044891,297.077026 469.083649,297.049255 
	C475.370117,297.024445 481.656830,297.044037 487.304504,297.044037 
	C489.002625,294.903076 488.036835,293.689758 487.530670,292.552307 
	C483.129456,282.661560 478.691620,272.786865 474.192261,262.940460 
	C473.537659,261.507935 473.191345,259.429016 471.105927,259.440918 
	C468.992828,259.452972 468.772400,261.565063 468.127136,263.004547 
	C458.317139,284.889587 448.552551,306.794983 438.760437,328.688019 
	C434.995636,337.105347 433.410675,337.813812 423.222565,335.417908 
	C425.237549,328.344971 429.193512,322.130249 431.928223,315.027740 
z"/>
<path fill="#000000" opacity="1.000000" stroke="none" 
	d="
M559.571167,299.907654 
	C559.408630,310.645264 559.153931,320.977936 559.410034,331.297943 
	C559.538635,336.480682 556.512390,336.298767 552.980225,336.296021 
	C549.462463,336.293274 546.550903,336.505890 546.585938,331.310577 
	C546.775879,303.156586 546.711487,275.000427 546.610535,246.845459 
	C546.598145,243.395721 547.886780,242.019684 551.243958,242.024017 
	C572.735046,242.051697 594.226501,242.082047 615.717041,241.968246 
	C621.063843,241.939941 620.172485,245.516571 620.346680,248.804153 
	C620.533691,252.333984 619.818298,254.399048 615.526001,254.353363 
	C598.867920,254.176041 582.204773,254.431656 565.548279,254.190460 
	C560.652588,254.119583 559.037964,255.856277 559.255859,260.594147 
	C559.546448,266.911499 559.309509,273.252411 559.328979,279.583130 
	C559.347595,285.637482 559.646301,285.959381 565.948547,285.981354 
	C578.110168,286.023773 590.272095,285.981201 602.433716,286.020966 
	C608.751587,286.041626 610.628296,288.692383 609.067993,294.835052 
	C608.358032,297.630280 606.297241,297.302826 604.359314,297.308167 
	C591.531250,297.343597 578.703064,297.319946 565.874878,297.349640 
	C563.593445,297.354919 561.088745,296.879456 559.571167,299.907654 
z"/>
<path fill="#000000" opacity="1.000000" stroke="none" 
	d="
M830.799683,261.752014 
	C823.054138,272.817535 815.561707,283.622040 807.936707,294.332184 
	C806.113525,296.893005 805.243408,299.491669 805.291809,302.657745 
	C805.431641,311.811829 805.100342,320.977844 805.424500,330.122498 
	C805.594788,334.925568 804.045837,336.633942 799.207825,336.362457 
	C792.977051,336.012878 792.792358,336.137390 792.777527,329.855042 
	C792.756287,320.865234 792.655945,311.873260 792.823364,302.886566 
	C792.889038,299.367920 791.899231,296.505615 789.869751,293.651062 
	C778.971802,278.322418 768.211243,262.895996 757.427185,247.486542 
	C756.509094,246.174561 755.103027,245.051346 755.339111,243.172501 
	C763.206909,240.125595 767.956238,241.454651 772.401489,247.892838 
	C780.061523,258.987244 787.709839,270.089905 795.409302,281.156891 
	C798.655090,285.822174 799.585022,285.806030 802.842224,281.125946 
	C810.638550,269.923615 818.397949,258.695587 826.172302,247.477966 
	C830.332520,241.475189 835.600220,240.129715 843.518860,243.520767 
	C839.297241,249.571121 835.150757,255.513794 830.799683,261.752014 
z"/>
</svg>